PathFileType	4	(X/Y/Z)	c:/Users/goper/Files/vsCode/490R/osim_files/A05/A05_Fast_05.trc
DataRate	CameraRate	NumFrames	NumMarkers	Units                	OrigDataRate	OrigDataStartFrame	OrigNumFrames
250.00	250.00	10	36	mm	250.0	1177	2352
                Frame#	Time	LPSIS			LASIS			LTH1			LTH2			LTH3			LTH4			LLFE			LMFE			LSH1			LSH2			LSH3			LSH4			LLMAL			LMMAL			LCAL			LMTP5			LTOE			LMTP1			RPSIS			RASIS			RTH1			RTH2			RTH3			RTH4			RLFE			RMFE			RSH1			RSH2			RSH3			RSH4			RLMAL			RMMAL			RCAL			RMTP1			RTOE			RMTP5		
		X1	Y1	Z1	X2	Y2	Z2	X3	Y3	Z3	X4	Y4	Z4	X5	Y5	Z5	X6	Y6	Z6	X7	Y7	Z7	X8	Y8	Z8	X9	Y9	Z9	X10	Y10	Z10	X11	Y11	Z11	X12	Y12	Z12	X13	Y13	Z13	X14	Y14	Z14	X15	Y15	Z15	X16	Y16	Z16	X17	Y17	Z17	X18	Y18	Z18	X19	Y19	Z19	X20	Y20	Z20	X21	Y21	Z21	X22	Y22	Z22	X23	Y23	Z23	X24	Y24	Z24	X25	Y25	Z25	X26	Y26	Z26	X27	Y27	Z27	X28	Y28	Z28	X29	Y29	Z29	X30	Y30	Z30	X31	Y31	Z31	X32	Y32	Z32	X33	Y33	Z33	X34	Y34	Z34	X35	Y35	Z35	X36	Y36	Z36

1177	4.70400	-1057.54187	997.24030	322.31622	-1256.15198	947.59778	416.43726	-1165.75952	662.51703	471.50882	-1182.43750	619.83942	459.61334	-1216.54980	680.34161	479.50787	-1228.70898	639.48688	475.83102	-1280.33704	469.18625	448.01324	-1281.41223	467.90979	346.97372	0.00000	0.00000	0.00000	-1264.61816	324.01453	457.70584	0.00000	0.00000	0.00000	-1316.41663	324.20343	448.30334	-1317.23120	111.20210	446.27472	-1315.30347	111.31359	358.37695	-1239.54175	55.33318	396.37494	-1450.66028	56.53143	470.77335	-1497.28210	81.37312	409.73724	-1456.60962	70.73209	362.91309	-1059.85107	1002.24023	241.74471	-1235.16711	956.84460	121.28519	-1117.61584	596.19464	67.41384	-1121.78015	553.87164	73.14299	-1176.41541	595.86469	85.46264	0.00000	0.00000	0.00000	-1081.92786	518.91327	82.20641	-1113.05933	486.33197	217.08186	-919.04694	311.57410	93.18834	-895.01050	271.88406	103.34753	-967.90369	272.38889	92.64994	-935.94720	238.97969	98.67234	-839.27960	173.21390	121.66479	-901.35944	165.53012	202.29736	-771.37372	141.34720	199.61148	-953.21088	54.11979	178.14023	-977.39716	54.92796	127.08984	-911.74670	51.45124	70.08942
1178	4.70800	-1062.11047	997.47925	322.50790	-1259.97546	947.89789	417.87073	-1168.25671	662.77618	472.06534	-1184.93811	620.25879	460.15912	-1219.28137	680.59906	480.22729	-1231.22900	639.71051	476.48715	-1282.29333	469.18808	448.53241	-1283.47058	468.49457	347.23096	-1260.45691	367.32196	455.48578	-1265.85950	324.08975	457.97665	0.00000	0.00000	0.00000	-1317.60132	324.01761	448.64389	-1317.50867	111.09051	446.37802	-1315.76672	111.24823	358.50433	-1239.54517	55.61462	396.56326	-1450.80103	55.90007	470.85245	-1497.57568	80.62586	409.90128	-1456.82556	70.29295	363.02774	-1063.97583	1002.89752	242.33212	-1239.40710	957.45074	122.32413	-1124.43469	596.52252	66.97720	-1128.90149	554.20923	72.30577	-1183.35388	596.45911	84.67727	0.00000	0.00000	0.00000	-1089.14526	519.17352	81.81510	-1120.80505	485.96219	216.21332	-924.46533	313.92340	92.87783	-899.97137	274.23700	103.17718	-972.95148	274.13431	91.96061	-940.48071	241.12473	98.03558	-843.07947	176.45927	121.73175	-905.68091	167.87662	201.83643	-775.20233	146.38658	200.08308	-954.04370	54.43711	178.07739	-977.83350	55.37302	126.57995	-912.46289	52.44745	70.30511
1179	4.71200	-1065.64258	998.58960	323.37466	-1263.82410	948.15912	419.21954	-1170.77612	663.03137	472.57126	-1187.49316	620.64709	460.52167	-1221.97827	680.82733	480.85684	-1233.75452	639.89105	477.06027	-1284.18945	469.15460	449.01984	-1285.49512	468.60110	347.69836	0.00000	0.00000	0.00000	-1267.03918	324.14752	458.31442	0.00000	0.00000	0.00000	-1319.06763	323.99713	449.04370	-1317.87903	110.99023	446.47342	-1316.15564	111.20629	358.60818	-1240.30713	57.11754	396.42380	-1451.03882	55.23201	470.93069	-1498.03381	79.96446	409.87250	-1457.04138	69.75842	363.07739	-1067.98413	1003.63318	242.89755	-1243.67773	958.05115	123.43066	-1131.46948	596.84802	66.47610	-1136.36377	554.98413	71.28539	-1190.48792	597.08374	83.89056	0.00000	0.00000	0.00000	-1096.65942	519.50629	81.31438	-1128.76050	485.59500	215.20204	-930.22174	316.30746	92.47452	-905.25891	276.94565	102.84377	-978.26282	275.86630	91.23964	-945.41119	243.26700	97.45640	-847.62720	179.43527	121.28421	-910.42328	170.11990	201.24237	-779.08069	152.07564	200.27904	-955.24597	54.83861	178.12094	-978.60596	55.44246	126.65359	-913.20905	53.68270	70.55307
1180	4.71600	-1069.32422	999.10718	323.80142	-1267.50000	948.30127	420.69183	-1173.22144	663.31842	473.14151	-1189.93750	620.96527	461.09616	-1224.64966	681.05365	481.48108	-1236.22668	640.11346	477.68539	-1285.83801	469.15894	449.49802	-1287.35950	468.70416	348.15598	-1263.31299	367.70517	456.35046	-1268.21863	324.14697	458.54816	0.00000	0.00000	0.00000	-1320.14917	323.85907	449.41852	-1318.21802	110.84097	446.53979	-1316.55054	111.15732	358.74646	-1240.86804	57.14378	396.28784	-1451.26074	54.65436	470.99872	-1498.33557	79.26009	410.03107	-1456.98792	69.17798	363.27167	-1072.11829	1004.28033	243.58260	-1247.90234	958.71588	124.49866	-1138.65784	597.21289	65.86993	-1144.00232	555.33063	70.31205	-1197.74463	597.75208	83.03872	0.00000	0.00000	0.00000	-1104.50586	519.76813	80.77503	-1137.07556	485.12494	214.09445	-936.58069	318.66324	92.00898	-910.80194	279.66577	102.56651	-983.86224	277.69894	90.47497	-950.55579	245.50104	96.84313	-852.13367	182.84309	121.17913	-915.25909	172.58774	200.72435	-783.65247	157.49525	200.90892	-956.48767	55.35884	178.28990	-979.57910	55.43186	126.81738	-915.43341	54.66072	71.20681
1181	4.72000	-1073.68311	999.93463	324.63342	0.00000	0.00000	0.00000	-1175.48315	663.51422	473.55405	-1192.33069	621.38855	461.60150	-1227.20898	681.25745	482.08154	-1238.64380	640.27557	478.23816	-1287.54236	469.05814	449.88004	-1289.22205	468.77545	348.64133	-1264.54053	367.56763	456.49277	-1269.27991	324.16339	458.81924	0.00000	0.00000	0.00000	-1321.34143	323.67914	449.78900	-1318.50342	110.69949	446.64725	-1316.82837	111.13050	358.83868	-1241.01611	57.21066	396.24918	-1451.40100	54.16375	471.07733	-1498.44312	78.71841	410.28381	-1457.48462	68.84165	363.25171	-1076.08496	1004.98523	244.23029	-1252.16138	959.43054	125.60406	-1146.04590	597.54309	65.22286	-1151.75903	555.67157	69.31667	-1205.16492	598.42212	82.09413	-1200.13232	552.39355	85.21783	-1112.39563	520.03912	80.13993	-1145.40088	484.65240	212.93449	-942.41687	321.11499	91.53918	-916.65430	282.28964	102.16111	-989.47162	279.16476	90.02917	-955.84814	247.73213	96.21909	-856.97455	186.31641	120.96794	-920.25977	175.09215	200.22615	-788.37817	163.40941	201.31044	-958.02435	55.97637	178.55089	-980.00110	55.55422	126.26726	-916.47083	56.23232	71.53687
1182	4.72400	-1077.62024	1000.64545	325.29144	0.00000	0.00000	0.00000	-1177.82458	663.84326	473.99475	-1194.60791	621.73260	462.06812	-1229.71179	681.42578	482.72702	-1240.94666	640.42242	478.78821	-1289.12573	469.04337	450.50610	-1291.00415	468.85446	349.07678	-1265.62097	367.90250	457.10468	-1270.27405	324.19370	459.06766	0.00000	0.00000	0.00000	-1322.18726	323.43292	450.13263	-1318.61267	110.56583	446.75027	-1317.02795	111.08935	358.85983	-1241.11890	57.25364	396.24161	-1451.45312	53.75183	471.19592	-1498.54773	78.19040	410.40433	-1457.62756	68.47901	363.33768	-1080.04834	1005.63770	244.97418	-1256.18774	960.08923	126.63707	-1152.65186	598.71014	64.04527	-1159.54492	556.03473	68.31176	-1212.82764	598.96820	81.22865	-1208.28992	554.30548	82.50999	-1120.49097	520.29761	79.38505	-1153.93286	484.21176	211.63849	-948.93707	323.52997	91.06474	-922.72357	285.01785	101.70344	-995.31763	281.09305	89.36952	-961.39087	250.06511	95.66347	-861.84625	189.95273	120.78747	-925.57794	177.54465	199.74426	-792.90863	169.90582	201.48071	-959.73425	56.89325	178.76395	-981.19165	55.76223	126.25227	-917.92657	58.02551	71.63032
1183	4.72800	-1081.60107	1001.24335	325.98450	0.00000	0.00000	0.00000	-1180.07605	664.03369	474.42157	-1196.87610	622.13086	462.47711	-1232.16956	681.61121	483.26315	-1243.17603	640.57507	479.31183	-1290.44458	468.93875	450.89508	-1292.62012	468.46259	349.85510	-1266.58582	367.78552	457.21628	-1271.22192	324.19049	459.30148	0.00000	0.00000	0.00000	-1323.19238	323.24911	450.51065	-1318.76758	110.45753	446.83411	-1317.16565	111.01083	358.97595	-1241.60266	57.29859	395.98624	-1451.49341	53.33302	471.25473	-1498.76758	77.79686	410.40564	-1457.75513	68.18480	363.41550	-1083.95911	1006.27423	245.63625	-1260.35327	960.83197	127.68594	-1160.28137	599.01648	63.24817	-1167.46960	556.41669	67.27654	-1220.45581	599.64417	80.27123	0.00000	0.00000	0.00000	-1128.79871	520.55750	78.53456	-1162.73584	483.80328	210.29523	-955.56622	325.95435	90.55862	-928.93579	287.78354	101.31993	-1001.55750	283.07214	88.82645	-967.26392	252.40216	95.18732	-867.20752	193.62119	120.51595	-930.77118	180.20560	199.27626	-798.33099	175.59480	201.96368	-961.78546	58.00050	178.94432	-982.76410	56.09204	126.21297	-919.20874	60.10338	71.96069
1184	4.73200	-1085.17297	1001.56445	326.43872	0.00000	0.00000	0.00000	-1182.32739	664.31622	474.88745	-1199.17273	622.51837	462.80270	-1234.61011	681.83649	483.81763	-1245.38452	640.78717	479.85156	-1292.00708	468.92529	451.22473	-1294.24548	468.54764	350.24185	-1267.84949	367.45822	457.37680	-1272.03296	324.22745	459.53552	0.00000	0.00000	0.00000	-1324.04895	323.06015	450.81802	-1318.87207	110.36967	446.87988	-1318.17126	112.74929	357.20590	-1241.67578	57.28028	396.01624	-1451.59814	53.01428	471.26761	-1498.83301	77.35015	410.48468	-1457.85339	67.88825	363.44235	-1087.88818	1006.90063	246.36015	-1264.57715	961.55658	128.71884	-1168.00513	599.37946	62.42334	-1175.65149	556.79010	66.20443	-1228.25073	600.41479	79.33551	-1224.41663	555.63940	80.19119	-1137.26855	520.76123	77.59080	-1171.71716	483.21927	208.83357	-962.37341	328.45410	90.00639	-935.36548	290.58176	100.79348	-1007.98596	284.92676	88.35511	-973.30231	254.74052	94.72108	-872.65002	197.33533	120.25526	-936.15118	182.98766	198.81543	-804.02319	182.06532	202.19336	-964.02045	59.33467	179.08241	-984.51984	56.70497	126.12228	-920.87427	62.42712	72.21262
1185	4.73600	-1089.14832	1002.17615	327.14240	0.00000	0.00000	0.00000	-1184.57715	664.63562	475.28964	-1201.28198	622.90936	463.21478	-1237.10706	682.11163	484.33997	-1247.59924	641.03534	480.36508	-1293.38232	468.99039	451.70947	-1295.88550	468.62265	350.70050	-1268.83923	367.56293	457.69806	-1273.02185	324.26514	459.72656	0.00000	0.00000	0.00000	-1324.91089	322.91431	451.11459	-1319.02014	110.31837	446.95831	-1318.34521	112.70035	357.27844	-1241.71765	57.36037	396.05185	-1451.69946	52.70509	471.25604	-1498.99976	76.97413	410.44360	-1457.95447	67.62277	363.47525	-1091.79749	1007.52332	247.07458	-1268.70654	962.30933	129.69868	-1175.83398	599.68091	61.58297	-1183.70740	557.14301	65.21814	-1236.04858	601.05823	78.53699	-1229.87988	557.80127	77.26584	-1145.86133	520.91235	76.59653	-1180.89453	482.87482	207.32266	-969.77612	330.86554	89.40963	-941.94427	293.48038	100.22985	-1014.48828	287.00302	87.88447	-979.54370	257.13022	94.30571	-878.26550	201.21687	119.99603	-941.83014	185.85864	198.42403	-810.19495	188.59462	202.33865	-966.48694	60.80120	179.28609	-986.51465	57.51032	126.09755	-922.67169	65.15006	72.41405
1186	4.74000	-1092.97986	1002.75299	327.80746	0.00000	0.00000	0.00000	-1186.86609	664.89471	475.65613	-1203.52942	623.30505	463.60284	-1239.59436	682.33588	484.81604	-1249.91687	641.20331	480.82822	-1294.87695	468.97079	452.08145	-1297.50220	468.69324	351.10535	-1270.03418	367.69553	457.97839	-1273.99500	324.29379	459.89423	0.00000	0.00000	0.00000	-1326.04956	322.87445	451.38864	-1319.22791	110.44054	446.83487	-1318.49158	112.64100	357.29041	-1241.98450	57.92584	396.30002	-1451.78662	52.45427	471.19220	-1499.10620	76.58155	410.45633	-1458.09973	67.31794	363.40280	-1095.69482	1008.13763	247.79250	-1272.83252	963.06506	130.59799	-1183.71045	600.04016	60.78274	-1192.02820	557.53302	64.25408	-1243.84192	602.12732	77.57617	-1240.88550	557.07220	78.10548	-1155.22253	520.92200	75.50389	-1190.17480	482.55426	205.89137	-976.64343	333.45444	88.87567	-948.74750	296.30701	99.65999	-1021.32037	289.00067	87.62467	-985.81671	259.61447	93.83332	-884.05798	205.14697	119.73589	-947.61981	189.02551	198.12227	-816.60663	195.29568	202.54741	-969.20746	62.66557	179.30878	-988.71838	58.37346	125.93859	-924.85297	68.08073	72.59425
